HIERARCHY
ROOT Hips
{
	OFFSET -246.377396 91.733124 -540.268188
	CHANNELS 6 Xposition Yposition Zposition Zrotation Yrotation Xrotation 
	JOINT LeftUpLeg
	{
		OFFSET 0.103454 1.857841 10.548504
		CHANNELS 3 Zrotation Yrotation Xrotation
		JOINT LeftLeg
		{
			OFFSET 43.499992 -0.000061 0.000000
			CHANNELS 3 Zrotation Yrotation Xrotation
			JOINT LeftFoot
			{
				OFFSET 42.372196 0.000008 -0.000002
				CHANNELS 3 Zrotation Yrotation Xrotation
				JOINT LeftToe
				{
					OFFSET 17.300022 0.000011 0.000012
					CHANNELS 3 Zrotation Yrotation Xrotation
					End Site
					{
						OFFSET 0.000000 0.000000 0.000000
					}
				}
			}
		}
	}
	JOINT RightUpLeg
	{
		OFFSET 0.103458 1.857820 -10.548491
		CHANNELS 3 Zrotation Yrotation Xrotation
		JOINT RightLeg
		{
			OFFSET 43.500046 0.000015 0.000006
			CHANNELS 3 Zrotation Yrotation Xrotation
			JOINT RightFoot
			{
				OFFSET 42.372269 -0.000046 0.000017
				CHANNELS 3 Zrotation Yrotation Xrotation
				JOINT RightToe
				{
					OFFSET 17.300032 0.000011 0.000015
					CHANNELS 3 Zrotation Yrotation Xrotation
					End Site
					{
						OFFSET 0.000000 0.000000 0.000000
					}
				}
			}
		}
	}
	JOINT Spine
	{
		OFFSET 6.901962 -2.603707 -0.000004
		CHANNELS 3 Zrotation Yrotation Xrotation
		JOINT Spine1
		{
			OFFSET 12.588104 -0.000004 -0.000001
			CHANNELS 3 Zrotation Yrotation Xrotation
			JOINT Spine2
			{
				OFFSET 12.343199 -0.000026 0.000003
				CHANNELS 3 Zrotation Yrotation Xrotation
				JOINT Neck
				{
					OFFSET 25.832890 0.000004 -0.000006
					CHANNELS 3 Zrotation Yrotation Xrotation
					JOINT Head
					{
						OFFSET 11.766623 0.000031 0.000004
						CHANNELS 3 Zrotation Yrotation Xrotation
						End Site
						{
							OFFSET 0.000000 0.000000 0.000000
						}
					}
				}
				JOINT LeftShoulder
				{
					OFFSET 19.745897 -1.480345 6.000100
					CHANNELS 3 Zrotation Yrotation Xrotation
					JOINT LeftArm
					{
						OFFSET 11.284126 0.000003 -0.000015
						CHANNELS 3 Zrotation Yrotation Xrotation
						JOINT LeftForeArm
						{
							OFFSET 33.000057 -0.000023 0.000027
							CHANNELS 3 Zrotation Yrotation Xrotation
							JOINT LeftHand
							{
								OFFSET 25.199987 0.000051 0.000021
								CHANNELS 3 Zrotation Yrotation Xrotation
								End Site
								{
									OFFSET 0.000000 0.000000 0.000000
								}
							}
						}
					}
				}
				JOINT RightShoulder
				{
					OFFSET 19.746086 -1.480362 -6.000076
					CHANNELS 3 Zrotation Yrotation Xrotation
					JOINT RightArm
					{
						OFFSET 11.284140 0.000004 -0.000015
						CHANNELS 3 Zrotation Yrotation Xrotation
						JOINT RightForeArm
						{
							OFFSET 33.000084 -0.000023 0.000011
							CHANNELS 3 Zrotation Yrotation Xrotation
							JOINT RightHand
							{
								OFFSET 25.199789 0.000148 0.000422
								CHANNELS 3 Zrotation Yrotation Xrotation
								End Site
								{
									OFFSET 0.000000 0.000000 0.000000
								}
							}
						}
					}
				}
			}
		}
	}
}
MOTION
Frames: 7
Frame Time: 0.033333
297.272095 87.004349 216.943207 88.633794 10.876053 72.136995 143.529568 -8.608708 170.822253 -8.645347 -1.501220 -10.795560 61.613914 2.754637 -13.011148 21.454557 0.003091 0.000001 -153.973036 4.690393 -173.167384 -12.064929 5.548096 5.883379 90.417074 -3.660931 3.269101 21.454558 -0.003104 -0.000016 9.638818 -0.720859 2.840068 9.224936 -1.665799 5.614095 8.908364 -1.631791 5.624022 10.195447 -11.984174 -8.074711 -9.007573 20.348266 -15.232862 -152.328641 -73.506728 -29.834300 15.226459 68.123569 43.381813 -27.521397 -13.143394 1.064994 17.994007 9.718185 50.305474 -175.904186 76.787405 5.646163 -24.330333 -43.559378 8.814894 -63.974830 19.539962 -2.597783 -5.414238 4.254605 -44.156295 
296.548492 85.941391 219.573898 88.105335 9.788638 71.483093 144.139791 -8.654598 168.529713 -13.132900 -1.302227 -8.580234 61.011723 1.154875 -12.689911 21.454550 0.003093 0.000003 -152.622694 4.450904 -173.643326 -11.287977 5.973401 5.618745 91.407930 -3.476569 3.498508 21.454557 -0.003110 -0.000018 9.339117 -0.817584 3.072273 8.617137 -1.861535 6.075827 8.300819 -1.824738 6.086914 10.389542 -12.074336 -7.789697 -9.106340 20.259135 -14.924178 -151.779931 -72.820390 -30.415696 16.642348 67.488129 44.244367 -27.556149 -13.363636 1.079742 17.407915 10.041070 48.540840 -174.496922 76.659386 7.081357 -21.969754 -46.324423 6.213247 -65.220097 18.981919 -2.608918 -3.262184 2.492720 -40.363898 
295.898712 84.740318 222.390900 87.229685 8.629939 70.351905 144.496217 -9.261098 168.142127 -20.624248 -1.302820 -7.167493 63.029826 1.379175 -10.019010 21.454553 0.003094 0.000001 -151.696985 4.402602 -173.702707 -11.638560 6.418139 4.703482 92.397938 -2.848749 3.821952 21.454558 -0.003101 -0.000018 8.994949 -0.828355 3.299335 7.924493 -1.880431 6.535020 7.608478 -1.840871 6.546188 10.393490 -12.382428 -7.200742 -8.675811 20.200051 -14.240031 -150.042549 -71.739205 -32.230918 17.422366 66.795282 44.691850 -27.768752 -13.626436 1.100350 16.100431 9.377593 47.221804 -174.426612 76.658321 7.153094 -19.473254 -49.107199 2.741724 -64.265947 18.667349 -2.548558 -0.666166 0.805062 -34.091663 
295.315887 83.514183 225.465805 86.383684 7.473123 69.269907 145.586384 -9.613400 169.348448 -28.636181 -1.925565 -7.356816 62.622938 1.533374 -9.901378 21.454551 0.003094 0.000000 -151.091489 4.503293 -173.551924 -12.917678 6.614739 3.595560 92.937660 -2.065510 4.280089 21.454555 -0.003113 -0.000017 8.572574 -0.806021 3.449585 7.078838 -1.821045 6.844298 6.763033 -1.779656 6.855094 10.694268 -12.588728 -6.588673 -8.318991 19.552154 -13.341568 -149.068906 -70.646586 -33.266276 18.384096 66.025424 44.518261 -27.980749 -13.753373 1.112244 14.975905 7.397718 47.343432 -173.022694 76.677316 8.586455 -17.204845 -51.915650 -2.259373 -61.223029 18.807783 -2.438412 1.089815 -0.588486 -29.123616 
294.795593 82.432632 228.895706 85.942925 6.635692 68.416291 147.752414 -8.794209 170.698981 -34.236081 -3.448059 -7.764846 62.136191 4.539586 -3.284112 21.454553 0.003110 0.000001 -150.113556 5.057495 -173.545053 -14.029549 6.706197 2.753999 92.346145 -1.408263 4.876316 21.454558 -0.003105 -0.000017 8.119825 -0.843465 3.471082 6.171405 -1.870122 6.893266 5.855644 -1.828422 6.904348 11.050111 -12.509797 -5.812571 -7.646190 18.679668 -12.127825 -148.305701 -69.648614 -34.084918 19.269058 65.159684 44.924996 -27.986548 -14.151595 1.137895 13.927656 5.620366 46.220385 -170.338716 76.411437 11.325970 -15.328001 -54.354147 -8.981504 -55.915412 19.006207 -2.252803 1.893769 -0.092565 -29.024131 
294.586914 82.848267 231.849396 87.695217 6.440988 68.897607 148.146229 -6.057300 169.440464 -34.527805 -3.193052 -6.803603 61.748523 7.009839 4.585731 21.454555 0.003095 -0.000000 -149.394829 6.396191 -173.192260 -13.956870 5.709736 3.082251 88.159239 -1.213711 6.332829 21.454551 -0.003106 -0.000016 7.801349 -1.293424 3.106662 5.518077 -2.732706 6.150112 5.201594 -2.695452 6.166425 10.785997 -12.298345 -4.917045 -7.015520 17.875472 -10.881623 -147.211450 -68.378007 -35.257013 15.073416 64.478202 40.975131 -26.815367 -13.840998 1.097665 12.782155 3.819940 44.204158 -167.927892 75.569356 13.789909 -14.771481 -56.173795 -15.986304 -48.862453 18.800844 -1.996576 1.380960 1.331338 -32.704469 
294.306488 82.317459 235.501099 88.127445 7.583383 70.086094 147.733754 -4.286797 173.199213 -40.934232 -4.209244 -8.324257 66.230186 7.061765 2.401928 21.454557 0.003087 -0.000001 -149.286297 7.249404 -171.180154 -19.957266 4.581818 2.372132 84.703177 -0.516953 6.400745 21.454563 -0.003103 -0.000020 8.027421 -1.640368 2.768618 5.963244 -3.420578 5.451729 5.646096 -3.387503 5.472223 10.322662 -12.400881 -4.472746 -7.329409 17.750099 -10.500883 -148.961467 -67.520819 -33.478999 6.683150 63.318715 34.156926 -24.463651 -13.211544 1.019679 12.476993 2.554364 43.438173 -167.076590 74.122272 14.665422 -13.507069 -57.857556 -21.661072 -41.321794 17.612020 -1.691766 1.606520 2.365570 -37.040649 
